HIERARCHY
ROOT root
{
	OFFSET 0.000000 0.000000 0.000000
	CHANNELS 6 Xposition Yposition Zposition Zrotation Yrotation Xrotation
	JOINT lhip
	{
		OFFSET 0.058581 -0.082280 -0.017664
		CHANNELS 3 Zrotation Yrotation Xrotation
		JOINT lknee
		{
			OFFSET 0.043451 -0.386469 0.008037
			CHANNELS 3 Zrotation Yrotation Xrotation
			JOINT lankle
			{
				OFFSET -0.014790 -0.426874 -0.037428
				CHANNELS 3 Zrotation Yrotation Xrotation
				JOINT ltoe
				{
					OFFSET 0.041054 -0.060286 0.122042
					CHANNELS 3 Zrotation Yrotation Xrotation
					End Site
					{
						OFFSET 0.000000 0.000000 0.000000
					}
				}
			}
		}
	}
	JOINT rhip
	{
		OFFSET -0.060310 -0.090513 -0.013543
		CHANNELS 3 Zrotation Yrotation Xrotation
		JOINT rknee
		{
			OFFSET -0.043257 -0.383688 -0.004843
			CHANNELS 3 Zrotation Yrotation Xrotation
			JOINT rankle
			{
				OFFSET 0.019056 -0.420046 -0.034562
				CHANNELS 3 Zrotation Yrotation Xrotation
				JOINT rtoe
				{
					OFFSET -0.034840 -0.062106 0.130323
					CHANNELS 3 Zrotation Yrotation Xrotation
					End Site
					{
						OFFSET 0.000000 0.000000 0.000000
					}
				}
			}
		}
	}
	JOINT lowerback
	{
		OFFSET 0.004439 0.124404 -0.038385
		CHANNELS 3 Zrotation Yrotation Xrotation
		JOINT upperback
		{
			OFFSET 0.004488 0.137956 0.026820
			CHANNELS 3 Zrotation Yrotation Xrotation
			JOINT chest
			{
				OFFSET -0.002265 0.056032 0.002855
				CHANNELS 3 Zrotation Yrotation Xrotation
				JOINT lowerneck
				{
					OFFSET -0.013390 0.211636 -0.033468
					CHANNELS 3 Zrotation Yrotation Xrotation
					JOINT upperneck
					{
						OFFSET 0.010113 0.088937 0.050410
						CHANNELS 3 Zrotation Yrotation Xrotation
						End Site
						{
							OFFSET 0.000000 0.000000 0.000000
						}
					}
				}
				JOINT lclavicle
				{
					OFFSET 0.071702 0.114000 -0.018898
					CHANNELS 3 Zrotation Yrotation Xrotation
					JOINT lshoulder
					{
						OFFSET 0.122921 0.045205 -0.019046
						CHANNELS 3 Zrotation Yrotation Xrotation
						JOINT lelbow
						{
							OFFSET 0.255332 -0.015649 -0.022946
							CHANNELS 3 Zrotation Yrotation Xrotation
							JOINT lwrist
							{
								OFFSET 0.265709 0.012698 -0.007375
								CHANNELS 3 Zrotation Yrotation Xrotation
								End Site
								{
									OFFSET 0.000000 0.000000 0.000000
								}
							}
						}
					}
				}
				JOINT rclavicle
				{
					OFFSET -0.082954 0.112472 -0.023707
					CHANNELS 3 Zrotation Yrotation Xrotation
					JOINT rshoulder
					{
						OFFSET -0.113228 0.046853 -0.008472
						CHANNELS 3 Zrotation Yrotation Xrotation
						JOINT relbow
						{
							OFFSET -0.260127 -0.014369 -0.031269
							CHANNELS 3 Zrotation Yrotation Xrotation
							JOINT rwrist
							{
								OFFSET -0.269108 0.006794 -0.006027
								CHANNELS 3 Zrotation Yrotation Xrotation
								End Site
								{
									OFFSET 0.000000 0.000000 0.000000
								}
							}
						}
					}
				}
			}
		}
	}
}
MOTION
Frames: 13
Frame Time: 0.033333
-1.478254 0.289839 0.981805 88.497836 -2.955246 82.958132 -5.575573 -3.629147 -10.384632 -3.727835 -4.761662 16.062547 9.393798 9.657440 -4.288054 0.000000 -0.000000 0.000000 -1.868094 -1.895207 1.376590 0.993782 4.976143 55.237781 4.800749 -8.549380 2.764412 0.000000 -0.000000 0.000000 -1.297743 3.543941 12.417677 1.016645 0.422277 -3.320517 -1.524298 -0.306240 2.951696 3.294890 1.462958 -6.556717 -4.421922 -0.607815 13.203938 -31.757724 6.507948 -1.893612 -52.698654 -3.042628 9.039225 4.742007 -21.612512 9.885671 -6.047950 1.275181 0.406779 32.671509 -1.017494 -2.626530 48.870647 8.080890 14.323879 -13.465238 22.616669 -14.851099 6.538478 2.176048 -4.054807 
-1.440094 0.292005 0.987525 88.818665 -2.527335 82.028860 -5.803397 -2.701460 -6.082572 -3.783777 -6.729992 14.774623 9.899475 10.757616 -6.052728 0.000000 -0.000000 0.000000 -1.317208 -0.718195 -2.981839 0.471034 2.789923 58.626655 3.900876 -10.672078 -0.538383 0.000000 -0.000000 0.000000 -1.339351 1.876211 13.604149 1.278297 1.074640 -3.605931 -1.369340 -0.633823 2.996637 3.484538 2.292236 -6.545450 -4.924051 -0.383109 13.526153 -31.461060 6.313458 -2.067047 -52.615520 -4.007842 8.858336 4.829329 -22.208732 9.780914 -5.991494 1.479578 0.761925 32.744978 -0.934067 -2.891471 49.271082 7.515544 14.601887 -12.994653 21.384062 -14.188659 6.781953 1.785633 -3.045588 
-1.402123 0.293731 0.991699 89.615687 -2.153155 81.678013 -5.661550 -1.347945 -2.414173 -3.915634 -8.464918 13.317675 10.034396 10.784987 -7.819445 0.000000 -0.000000 0.000000 -1.333779 -0.362350 -7.576024 0.086344 0.740370 58.965829 3.492624 -11.405154 -3.899299 0.000000 -0.000000 0.000000 -1.312093 0.502191 13.264878 1.523652 0.948133 -3.134359 -1.274905 -1.098827 3.088804 3.643520 3.035051 -5.554146 -5.162435 -0.629831 13.687354 -30.871729 5.532051 -1.059424 -52.624531 -5.164620 8.726124 5.490175 -23.390305 8.832832 -5.641665 0.934052 0.197239 32.685893 -0.472760 -2.020390 49.898054 7.111539 14.393119 -12.974018 20.355091 -13.716194 6.922572 1.295986 -3.062366 
-1.356026 0.294848 0.995581 90.893146 -1.398238 80.929643 -4.742259 0.470195 2.899861 -4.106452 -11.099089 10.509603 9.505633 9.925473 -8.958009 0.000000 -0.000000 0.000000 -1.264349 -0.477697 -11.873740 1.042756 -1.055923 56.134615 4.281129 -10.447782 -7.910942 0.000000 -0.000000 0.000000 -0.898728 -1.328282 14.571007 1.640480 0.716695 -3.543252 -1.074846 -1.814977 2.989950 3.652372 4.092429 -5.371436 -5.262864 -0.931936 13.847177 -30.167146 5.033902 -1.075491 -52.248608 -6.486465 8.636065 5.403667 -24.807354 8.298127 -5.078845 0.213789 0.277800 32.743477 -0.771308 -2.202054 50.374009 6.471722 13.947568 -12.195925 19.338072 -13.085522 7.059758 1.137666 -2.654445 
-1.328564 0.295763 0.996327 92.027412 -0.848418 80.634566 -3.926804 1.692203 5.193808 -4.115822 -12.554868 10.072357 8.564395 9.484072 -10.612333 0.000000 -0.000000 0.000000 -1.473980 -1.212805 -13.985036 -0.094854 -3.195759 51.124174 4.556833 -11.189879 -8.119572 0.000000 -0.000000 0.000000 -0.466320 -2.420288 15.187302 1.636821 0.282176 -3.682423 -0.821840 -2.249722 2.787631 3.286264 4.055136 -5.043495 -5.134252 -0.901484 13.554551 -29.884652 4.806896 -1.048666 -51.940940 -7.413248 8.366938 4.981053 -26.150890 8.452307 -4.212236 1.498059 0.060436 32.720941 -0.940449 -2.063312 50.543468 5.910315 13.570460 -11.834916 19.256540 -12.839992 6.763538 0.801302 -2.326406 
-1.291563 0.295637 0.994735 92.908503 -0.267009 80.449161 -2.545510 2.956617 8.894381 -4.212648 -14.211499 7.973722 7.826300 8.889560 -11.776882 0.000000 -0.000000 0.000000 -1.590164 -1.402599 -16.036471 -0.252488 -5.344849 43.170993 5.234464 -11.106572 -7.954787 0.000000 -0.000000 0.000000 -0.288271 -3.539702 15.509734 1.673967 0.098985 -3.456843 -0.420343 -2.612966 2.883032 3.114608 4.613706 -5.076204 -4.962818 -1.064586 13.274243 -29.178068 4.319116 -0.764817 -51.756438 -8.577088 8.501548 5.291775 -27.508572 8.650475 -3.396346 0.438882 -0.096528 32.784127 -1.192351 -1.968888 50.875261 5.304578 13.374909 -11.809323 19.212461 -12.268211 6.432103 1.089473 -2.425477 
-1.256780 0.296260 0.991285 93.663966 -0.081533 80.771625 -1.850884 3.695528 11.279682 -4.142058 -14.977928 7.313062 7.888754 8.819866 -13.614508 0.000000 -0.000000 0.000000 -1.741994 -1.964233 -17.901696 -0.433245 -6.345534 33.791696 5.809413 -10.679451 -6.822265 0.000000 -0.000000 0.000000 -0.302313 -4.052110 15.914328 1.638106 -0.165119 -3.794740 0.097532 -3.110990 2.933306 2.656208 4.775482 -5.192756 -4.522657 -0.862750 12.789332 -28.561155 4.063312 -0.911681 -51.678853 -9.809225 8.774264 5.071965 -29.310938 9.459203 -2.495854 1.176592 0.158088 32.705166 -1.746790 -2.012905 51.296119 4.677936 13.148235 -11.687179 19.531001 -11.603267 6.187679 0.535357 -2.149639 
-1.221442 0.295861 0.985328 94.185248 -0.160017 81.470262 -1.376932 3.949888 13.157578 -4.189547 -15.145518 6.767078 7.721469 8.525641 -15.328232 0.000000 -0.000000 0.000000 -1.723896 -2.478165 -19.415869 -0.721523 -6.933932 23.306339 6.760881 -10.832289 -3.587780 0.000000 -0.000000 0.000000 -0.502553 -4.242231 15.383156 1.664368 -0.657083 -3.616621 0.481288 -3.449905 2.536253 2.288618 4.849881 -4.058110 -3.890228 -0.655029 12.810969 -28.051938 3.465450 -0.329313 -51.439290 -11.078971 8.885072 5.851268 -30.383454 8.431722 -1.680425 0.127177 0.476462 32.484994 -1.808904 -1.122453 51.989504 4.059147 13.337387 -12.172856 19.035553 -11.712499 5.865828 0.602178 -2.756017 
-1.185520 0.294242 0.978503 94.492647 -0.336126 82.037242 -0.763747 4.898999 15.028182 -4.344652 -16.039150 6.395397 6.681789 7.983971 -16.694064 0.000000 -0.000000 0.000000 -1.373151 -3.129941 -19.995785 -0.652358 -6.505252 12.139173 8.073267 -10.191899 -3.693966 0.000000 -0.000000 0.000000 -0.968666 -4.225405 15.370659 1.619514 -0.844689 -3.664490 1.004324 -3.680419 2.650028 2.112409 5.234713 -5.101727 -3.440201 -0.851289 12.772443 -27.660111 3.362552 -0.859251 -51.186669 -12.386796 9.072789 5.688113 -31.020645 8.317599 -0.899096 -0.835606 0.501731 32.789041 -2.228047 -1.580999 52.030490 3.579689 13.455467 -11.764710 18.473894 -11.014857 5.426802 0.535773 -2.424808 
-1.138995 0.291223 0.969638 95.114116 -0.366491 82.682142 0.321675 5.451660 17.339769 -4.611394 -16.565565 6.635814 5.372880 7.265822 -18.173163 0.000000 -0.000000 0.000000 -1.081934 -3.387666 -19.890559 -0.213228 -6.046324 1.099840 10.388140 -8.145391 -4.262290 0.000000 -0.000000 0.000000 -1.017701 -4.320202 15.338691 1.450005 -1.437406 -3.732862 1.391997 -3.855936 2.388366 2.007242 5.456587 -5.185355 -2.986686 -1.115877 12.330940 -27.384881 3.062596 -1.235606 -50.758518 -13.405471 8.975377 5.644861 -32.015806 7.730927 0.077984 -0.747595 0.989174 33.054941 -2.402783 -1.542020 52.224353 3.004113 13.183667 -11.464542 17.649514 -10.455329 5.255250 0.133654 -2.010334 
-1.099881 0.288709 0.963931 95.920089 -0.331827 83.134671 1.091215 5.734958 18.730163 -4.417424 -17.413454 8.055081 4.919424 7.024427 -19.116839 0.000000 -0.000000 0.000000 -1.062043 -3.380114 -21.556654 -0.078990 -7.207697 2.073363 11.569938 -7.358048 -4.893956 0.000000 -0.000000 0.000000 -1.047754 -4.924595 15.242903 1.579270 -1.483142 -4.094445 1.385931 -4.123490 2.194090 2.106291 5.572789 -4.934282 -3.041695 -1.248017 12.603075 -27.413374 2.908482 -1.210376 -50.453813 -13.815979 9.085512 5.800047 -32.332322 7.638093 -0.078834 -2.090614 0.986992 33.266458 -2.657687 -1.586078 52.162795 2.508737 13.077848 -10.993876 16.538291 -10.003696 5.333973 -0.065726 -1.876877 
-1.058508 0.285181 0.960346 96.180278 -0.016335 83.085349 1.967809 5.285727 20.531721 -4.456396 -18.920697 9.992555 4.103591 7.089519 -18.480792 0.000000 -0.000000 0.000000 -0.789155 -2.228429 -22.512504 0.134260 -7.186649 7.561362 9.470975 -8.855237 -4.785502 0.000000 -0.000000 0.000000 -1.034849 -5.655227 14.793822 1.928276 -1.165463 -3.238641 1.253654 -4.003870 2.178967 2.225386 5.516330 -5.005765 -3.283934 -1.118313 12.497380 -27.746037 2.492605 -0.919421 -49.974417 -14.230220 9.051175 6.022684 -32.708005 7.679173 -0.846853 -1.478536 0.069631 33.741161 -2.071722 -1.203757 51.770215 2.485724 12.984153 -10.968888 15.362983 -10.117842 6.017297 -0.755756 -1.899905 
-1.014188 0.281138 0.959588 97.071000 0.217717 83.218817 2.430324 4.455455 20.913879 -4.684995 -20.211900 14.187763 2.485063 6.558729 -17.071288 0.000000 -0.000000 0.000000 -0.062607 -1.394847 -22.007785 -0.483006 -7.446610 11.310600 7.432305 -9.675302 -1.790059 0.000000 -0.000000 0.000000 -0.919800 -6.263293 14.064628 2.136587 -1.241030 -2.898419 1.149072 -4.130953 2.142052 2.146388 5.309531 -5.008625 -3.317257 -0.720147 12.951908 -28.038614 2.688967 -0.599483 -49.953921 -14.216100 9.099877 6.075218 -32.826308 7.951597 -0.850239 -1.554895 0.029887 33.892035 -2.176336 -1.287895 51.511804 2.135891 13.169693 -10.614803 14.153612 -9.730901 6.521785 -0.656283 -2.081227 
